<svg xmlns="http://www.w3.org/2000/svg" version="1.1" xmlns:xlink="http://www.w3.org/1999/xlink" xmlns:svgjs="http://svgjs.com/svgjs" width="1920" height="590" preserveAspectRatio="none" viewBox="0 0 1920 590"><g mask="url(&quot;#SvgjsMask1485&quot;)" fill="none"><rect width="1920" height="590" x="0" y="0" fill="url(#SvgjsLinearGradient1486)"></rect><path d="M421.4 645.75C635.17 637.91 809.88 296.6 1202.47 296.39 1595.06 296.18 1782.65 483.86 1983.54 485.19" stroke="rgba(51,121,194,0.58)" stroke-width="2"></path><path d="M630.43 591.61C796.08 561.15 753.52 145.56 1134.99 145.17 1516.47 144.78 1883.99 396.94 2144.12 398.87" stroke="rgba(51,121,194,0.58)" stroke-width="2"></path><path d="M563.92 679.98C718.35 669.02 825.32 370.8 1099.65 369.39 1373.98 367.98 1367.52 443.14 1635.39 443.14 1903.25 443.14 2035.92 369.56 2171.12 369.39" stroke="rgba(51,121,194,0.58)" stroke-width="2"></path><path d="M673.72 599.12C788.55 597.36 766.65 462.39 1110.65 457.33 1454.65 452.27 1755.32 183.33 1984.5 180.03" stroke="rgba(51,121,194,0.58)" stroke-width="2"></path><path d="M613.53 621.79C848.81 599.51 1002.93 105.54 1404.74 104.45 1806.55 103.36 1989.55 337.95 2195.95 340.45" stroke="rgba(51,121,194,0.58)" stroke-width="2"></path></g><defs><mask id="SvgjsMask1485"><rect width="1920" height="590" fill="#ffffff"></rect></mask><linearGradient x1="0%" y1="50%" x2="100%" y2="50%" gradientUnits="userSpaceOnUse" id="SvgjsLinearGradient1486"><stop stop-color="#0e2a47" offset="0"></stop><stop stop-color="rgba(98, 44, 96, 1)" offset="1"></stop></linearGradient></defs></svg>